<svg xmlns="http://www.w3.org/2000/svg" xmlns:xlink="http://www.w3.org/1999/xlink" width="500" zoomAndPan="magnify" viewBox="0 0 375 374.999991" height="500" preserveAspectRatio="xMidYMid meet" version="1.0"><defs><clipPath id="3ebd73e3dd"><path d="M 60 93 L 315 93 L 315 226.816406 L 60 226.816406 Z M 60 93 " clip-rule="nonzero"/></clipPath></defs><path fill="#ffffff" d="M 187.496094 277.359375 C 184.433594 277.359375 181.367188 276.257812 178.914062 273.925781 L 19.542969 118.722656 C 14.640625 113.941406 14.640625 106.21875 19.296875 101.4375 C 24.078125 96.535156 31.804688 96.535156 36.585938 101.191406 L 187.375 248.058594 L 338.164062 101.191406 C 343.070312 96.535156 350.792969 96.535156 355.449219 101.4375 C 360.109375 106.339844 360.109375 114.066406 355.207031 118.722656 L 195.832031 273.804688 C 193.503906 276.132812 190.316406 277.238281 187.253906 277.238281 Z M 187.496094 277.359375 " fill-opacity="1" fill-rule="nonzero"/><g clip-path="url(#3ebd73e3dd)"><path fill="#ffffff" d="M 187.496094 226.15625 C 185.230469 226.15625 182.960938 225.34375 181.148438 223.621094 L 63.265625 108.820312 C 59.636719 105.28125 59.636719 99.570312 63.085938 96.035156 C 66.621094 92.40625 72.332031 92.40625 75.871094 95.851562 L 187.40625 204.484375 L 298.941406 95.851562 C 302.566406 92.40625 308.28125 92.40625 311.726562 96.035156 C 315.171875 99.660156 315.171875 105.375 311.542969 108.820312 L 193.660156 223.527344 C 191.9375 225.25 189.582031 226.066406 187.3125 226.066406 Z M 187.496094 226.15625 " fill-opacity="1" fill-rule="nonzero"/></g></svg>