<svg xmlns="http://www.w3.org/2000/svg" xmlns:xlink="http://www.w3.org/1999/xlink" width="500" zoomAndPan="magnify" viewBox="0 0 375 374.999991" height="500" preserveAspectRatio="xMidYMid meet" version="1.0"><defs><clipPath id="bc2967234d"><path d="M 40 52.6875 L 337.5 52.6875 L 337.5 322.6875 L 40 322.6875 Z M 40 52.6875 " clip-rule="nonzero"/></clipPath></defs><g clip-path="url(#bc2967234d)"><path fill="#000000" d="M 313.28125 191.429688 L 329.726562 191.429688 L 329.726562 108.84375 C 329.726562 104.867188 324.375 101.109375 317.269531 97.988281 C 308.546875 94.179688 295.890625 91.113281 286.164062 90.207031 L 301.605469 103.207031 C 303.15625 104.390625 303.59375 106.597656 302.539062 108.296875 L 293.941406 122.191406 L 296.511719 139.644531 C 296.691406 140.757812 296.402344 141.941406 295.601562 142.855469 L 268.78125 173.378906 C 268.234375 174.324219 267.300781 175.039062 266.160156 175.277344 C 264.667969 175.566406 263.191406 174.949219 262.335938 173.796875 L 237.132812 144.515625 C 236.371094 143.621094 236.078125 142.488281 236.242188 141.433594 L 236.222656 141.433594 L 238.808594 123.839844 L 230.214844 109.921875 C 229.269531 108.390625 229.519531 106.457031 230.710938 105.234375 L 245.222656 90.097656 C 235.078125 90.699219 221.816406 93.03125 212.714844 96.546875 C 205.996094 99.140625 200.972656 102.382812 200.972656 106.179688 L 200.972656 191.429688 L 218.472656 191.429688 L 218.472656 150.730469 C 218.472656 148.59375 220.199219 146.863281 222.332031 146.863281 C 224.464844 146.863281 226.175781 148.59375 226.175781 150.730469 L 226.175781 222.921875 L 305.570312 222.921875 L 305.589844 152.789062 C 305.589844 150.652344 307.300781 148.941406 309.433594 148.941406 C 311.566406 148.941406 313.292969 150.652344 313.292969 152.789062 L 313.292969 191.429688 Z M 329.726562 199.144531 L 313.28125 199.144531 L 313.28125 204.710938 L 326.957031 204.710938 C 328.46875 204.710938 329.726562 203.449219 329.726562 201.9375 Z M 218.457031 199.144531 L 200.957031 199.144531 L 200.957031 202.117188 L 200.941406 202.117188 C 200.957031 203.609375 202.160156 204.890625 203.6875 204.890625 L 203.6875 204.910156 C 208.605469 204.910156 213.542969 204.859375 218.457031 204.800781 Z M 305.558594 230.640625 L 269.71875 230.640625 L 269.71875 311.003906 C 269.71875 311.660156 270.261719 312.207031 270.917969 312.207031 L 304.753906 312.207031 L 305.320312 311.988281 L 305.320312 311.96875 C 305.46875 311.820312 305.558594 311.621094 305.558594 311.402344 Z M 313.261719 226.9375 L 313.261719 311.402344 C 313.261719 313.757812 312.316406 315.886719 310.769531 317.417969 C 309.21875 318.96875 307.085938 319.933594 304.761719 319.933594 L 270.925781 319.933594 C 269.050781 319.933594 267.300781 319.328125 265.863281 318.34375 C 264.421875 319.328125 262.675781 319.933594 260.800781 319.933594 L 227.367188 319.933594 C 222.46875 319.933594 218.464844 315.917969 218.464844 311 L 218.464844 212.472656 C 213.53125 212.511719 208.609375 212.566406 203.695312 212.601562 L 203.695312 212.621094 C 197.976562 212.621094 193.28125 207.902344 193.28125 202.117188 L 193.261719 202.117188 L 193.261719 106.179688 C 193.261719 90.882812 221.453125 85.316406 234.070312 83.515625 L 234.070312 77.460938 C 234.070312 75.542969 234.851562 73.8125 236.105469 72.554688 C 237.363281 71.292969 239.09375 70.515625 241.007812 70.515625 L 245.722656 70.515625 L 245.722656 64.839844 C 245.722656 62.542969 246.667969 60.425781 248.183594 58.894531 C 249.710938 57.382812 251.804688 56.429688 254.121094 56.429688 L 276.261719 56.429688 C 281.054688 56.429688 284.96875 60.347656 284.96875 65.148438 L 284.96875 70.507812 L 289.683594 70.507812 C 291.597656 70.507812 293.328125 71.292969 294.585938 72.546875 C 295.84375 73.808594 296.621094 75.539062 296.621094 77.457031 L 296.621094 83.953125 C 309.457031 86.359375 337.429688 93.710938 337.429688 108.84375 L 337.429688 201.9375 C 337.429688 207.71875 332.714844 212.441406 326.957031 212.441406 L 313.261719 212.441406 Z M 262 230.640625 L 226.160156 230.640625 L 226.160156 311.003906 C 226.160156 311.660156 226.707031 312.207031 227.363281 312.207031 L 260.800781 312.207031 C 261.457031 312.207031 262 311.660156 262 311.003906 Z M 264.96875 195.097656 C 272.890625 195.097656 276.878906 204.730469 271.273438 210.34375 C 265.683594 215.960938 256.066406 211.945312 256.066406 204.035156 C 256.066406 199.09375 260.054688 195.097656 264.96875 195.097656 Z M 265.824219 203.179688 C 264.695312 202.046875 263.003906 203.765625 264.117188 204.890625 C 265.246094 206.003906 266.953125 204.304688 265.824219 203.179688 Z M 264.96875 176.929688 C 272.890625 176.929688 276.878906 186.5625 271.273438 192.179688 C 265.683594 197.792969 256.066406 193.78125 256.066406 185.867188 C 256.066406 180.925781 260.054688 176.929688 264.96875 176.929688 Z M 265.824219 185.011719 C 264.695312 183.878906 263.003906 185.597656 264.117188 186.722656 C 265.246094 187.84375 266.953125 186.144531 265.824219 185.011719 Z M 294.269531 107.074219 L 283.636719 98.097656 L 271.925781 158.113281 L 288.644531 139.089844 L 286.132812 121.914062 C 285.984375 120.890625 286.257812 119.886719 286.824219 119.101562 Z M 269.269531 131.527344 L 270.101562 127.242188 C 269.101562 129.867188 269.269531 128.851562 269.269531 131.527344 Z M 260.691406 127.171875 L 261.566406 131.582031 C 261.566406 128.832031 261.726562 129.886719 260.691406 127.171875 Z M 247.339844 98.972656 L 238.289062 108.40625 L 245.921875 120.769531 C 246.488281 121.554688 246.757812 122.539062 246.617188 123.582031 L 244.097656 140.808594 L 258.847656 157.964844 Z M 282.777344 171.171875 C 280.644531 171.171875 278.917969 169.441406 278.917969 167.328125 C 278.917969 165.191406 280.644531 163.460938 282.777344 163.460938 L 298.511719 163.460938 C 300.644531 163.460938 302.351562 165.191406 302.351562 167.328125 C 302.351562 169.441406 300.644531 171.171875 298.511719 171.171875 Z M 241.773438 82.621094 L 249.382812 82.253906 C 252.519531 82.414062 252.410156 85.625 258.128906 88.328125 C 262.625 90.445312 268.214844 90.445312 272.699219 88.328125 C 278.523438 85.574219 278.34375 82.253906 281.671875 82.253906 L 281.671875 82.234375 C 283.621094 82.234375 286.097656 82.414062 288.917969 82.742188 L 288.917969 78.238281 L 241.773438 78.238281 Z M 257.136719 96.222656 L 265.40625 117.917969 L 273.695312 96.222656 C 268.394531 98.097656 262.4375 98.097656 257.136719 96.222656 Z M 276.257812 64.144531 L 254.121094 64.144531 C 253.9375 64.144531 253.753906 64.214844 253.625 64.34375 L 253.425781 64.839844 L 253.425781 70.515625 L 277.265625 70.515625 L 277.265625 65.15625 C 277.257812 64.601562 276.808594 64.144531 276.257812 64.144531 Z M 146.21875 314.941406 C 146.019531 299.148438 143.070312 283.355469 137.511719 268.570312 C 136.769531 266.582031 137.769531 264.359375 139.753906 263.613281 C 141.738281 262.867188 143.964844 263.867188 144.707031 265.855469 C 150.605469 281.574219 153.703125 298.152344 153.902344 314.949219 L 173.933594 314.949219 C 173.734375 297.863281 170.359375 281.230469 163.988281 265.378906 C 163.183594 263.414062 164.15625 261.167969 166.121094 260.363281 C 168.085938 259.578125 170.328125 260.542969 171.132812 262.511719 C 177.851562 279.230469 181.421875 296.863281 181.621094 314.941406 L 190.761719 314.941406 C 193.148438 274.636719 179.765625 234.90625 153.375 204.5625 L 121.871094 228.523438 C 120.449219 229.597656 118.503906 229.527344 117.175781 228.472656 L 85.757812 204.585938 C 59.574219 235.113281 46.226562 274.671875 48.609375 314.949219 L 63.089844 314.949219 C 63.050781 296.929688 66.332031 279.371094 72.816406 262.59375 C 73.578125 260.605469 75.800781 259.625 77.769531 260.390625 C 79.753906 261.152344 80.734375 263.378906 79.972656 265.367188 C 73.886719 281.101562 70.738281 298.046875 70.777344 314.949219 L 93.667969 314.949219 C 93.867188 297.882812 97.054688 281.140625 103.097656 265.21875 C 103.84375 263.230469 106.085938 262.230469 108.070312 262.992188 C 110.054688 263.742188 111.058594 265.964844 110.292969 267.972656 C 104.59375 282.960938 101.550781 298.902344 101.351562 314.949219 L 146.21875 314.949219 Z M 82.484375 196.628906 C 88.695312 172.101562 82.445312 155.746094 76.875 141.175781 C 75.417969 137.367188 73.996094 133.640625 72.777344 129.726562 C 72.160156 127.757812 71.882812 125.820312 71.882812 123.941406 C 71.882812 120.511719 72.796875 117.28125 74.363281 114.347656 L 73.777344 108.824219 C 71.136719 83.765625 80.390625 81.707031 90.367188 79.460938 C 97.214844 77.929688 104.589844 76.273438 104.589844 56.523438 C 104.589844 54.386719 106.316406 52.65625 108.449219 52.65625 L 133.929688 52.65625 C 136.0625 52.65625 137.789062 54.386719 137.789062 56.523438 C 137.789062 76.179688 145.421875 77.65625 152.488281 79.023438 C 162.78125 81.011719 172.230469 82.832031 169.183594 108 L 168.332031 115.078125 C 169.710938 117.917969 170.515625 121.019531 170.515625 124.300781 C 170.515625 130.871094 165.710938 141.585938 163.03125 147.917969 C 156.894531 162.378906 150.394531 177.75 156.382812 196.371094 C 171.421875 212.765625 182.765625 232.042969 189.921875 252.847656 C 197.117188 273.78125 200.046875 296.265625 198.210938 318.957031 C 198.136719 321.015625 196.441406 322.675781 194.347656 322.675781 L 45.023438 322.675781 L 45.023438 322.65625 C 43.019531 322.675781 41.34375 321.125 41.183594 319.097656 C 37.578125 274.167969 52.4375 230.035156 82.484375 196.628906 Z M 81.261719 106.25 C 84.03125 104.0625 87.238281 102.332031 90.550781 101.238281 L 86.871094 88.527344 C 82.976562 90.40625 80.300781 94.453125 81.261719 106.25 Z M 98.144531 99.847656 C 109.234375 99.5 116.042969 104.878906 121.273438 113.835938 C 126.574219 104.730469 133.671875 99.261719 144.90625 99.867188 L 148.898438 86.171875 C 140.011719 84.332031 131.121094 81.082031 130.15625 60.386719 L 112.222656 60.386719 C 111.289062 80.863281 102.820312 84.402344 94.265625 86.46875 Z M 152.46875 101.398438 C 155.765625 102.5625 158.898438 104.351562 161.589844 106.617188 C 163.03125 94.054688 160.371094 89.878906 156.347656 88.039062 Z M 119.558594 220.625 L 148.910156 198.289062 C 142.261719 177.246094 149.308594 160.597656 155.9375 144.933594 C 158.101562 139.824219 162.785156 129.25 162.785156 124.308594 C 162.785156 115.0625 152.570312 107.550781 143.679688 107.550781 C 139.074219 107.550781 135.667969 108.792969 132.917969 111.234375 C 129.882812 113.9375 127.363281 118.183594 124.78125 123.949219 C 123.449219 126.882812 119.132812 127.027344 117.753906 123.949219 C 115.164062 118.183594 112.632812 113.9375 109.613281 111.234375 C 98.105469 101.027344 75.851562 113.710938 80.113281 127.429688 L 84.070312 138.441406 C 90.023438 154.015625 96.6875 171.480469 90.023438 198.179688 Z M 119.558594 220.625 " fill-opacity="1" fill-rule="nonzero"/></g><path stroke-linecap="butt" transform="matrix(0, -0.75, 0.75, 0, 196.935548, 205.310523)" fill="none" stroke-linejoin="miter" d="M 0.00257276 2.002602 L 137.085915 2.002602 " stroke="#000000" stroke-width="4" stroke-opacity="1" stroke-miterlimit="4"/></svg>