<svg xmlns="http://www.w3.org/2000/svg" xmlns:xlink="http://www.w3.org/1999/xlink" width="1440" zoomAndPan="magnify" viewBox="0 0 1080 809.999993" height="1080" preserveAspectRatio="xMidYMid meet" version="1.0"><defs><clipPath id="a426834053"><path d="M 238.273438 83 L 510 83 L 510 519 L 238.273438 519 Z M 238.273438 83 " clip-rule="nonzero"/></clipPath></defs><path fill="#000000" d="M 525.957031 333.4375 C 512.824219 341.050781 504.648438 355.183594 504.648438 370.40625 L 504.648438 527.847656 C 499.382812 527.023438 494.078125 526.585938 488.730469 526.585938 C 432.929688 526.585938 387.523438 571.992188 387.523438 627.792969 C 387.523438 683.59375 432.929688 729 488.730469 729 C 544.53125 729 589.933594 683.59375 589.933594 627.792969 L 589.933594 395.023438 L 755.164062 299.644531 L 755.164062 443.082031 C 749.898438 442.253906 744.550781 441.820312 739.246094 441.820312 C 683.445312 441.820312 638.039062 487.226562 638.039062 543.027344 C 638.039062 598.828125 683.445312 644.234375 739.246094 644.234375 C 795.046875 644.234375 840.449219 598.828125 840.449219 543.027344 L 840.449219 225.75 C 840.40625 214.136719 835.839844 203.308594 827.578125 195.21875 C 819.269531 187.128906 808.179688 182.824219 796.742188 183.128906 C 789.609375 183.300781 782.605469 185.257812 776.472656 188.824219 Z M 797.261719 205.398438 C 803.046875 205.308594 808.050781 207.308594 812.007812 211.179688 C 816.007812 215.050781 818.183594 220.226562 818.183594 225.75 L 818.183594 543.027344 C 818.183594 586.5625 782.738281 621.964844 739.246094 621.964844 C 695.707031 621.964844 660.304688 586.5625 660.304688 543.027344 C 660.304688 499.492188 695.707031 464.089844 739.246094 464.089844 C 747.289062 464.089844 755.25 465.304688 762.949219 467.742188 C 766.339844 468.785156 770.035156 468.175781 772.863281 466.089844 C 775.734375 464 777.429688 460.652344 777.429688 457.128906 L 777.429688 280.332031 C 777.429688 276.375 775.300781 272.679688 771.863281 270.722656 C 768.429688 268.722656 764.164062 268.722656 760.730469 270.722656 L 573.234375 378.929688 C 569.796875 380.929688 567.667969 384.585938 567.667969 388.585938 L 567.667969 627.792969 C 567.667969 671.328125 532.265625 706.730469 488.730469 706.730469 C 445.191406 706.730469 409.789062 671.328125 409.789062 627.792969 C 409.789062 584.257812 445.191406 548.855469 488.730469 548.855469 C 496.773438 548.855469 504.777344 550.074219 512.476562 552.507812 C 515.824219 553.550781 519.523438 552.941406 522.390625 550.855469 C 525.21875 548.769531 526.914062 545.417969 526.914062 541.894531 L 526.914062 370.40625 C 526.914062 363.144531 530.828125 356.359375 537.09375 352.75 L 787.609375 208.09375 C 790.523438 206.441406 793.871094 205.484375 797.261719 205.398438 " fill-opacity="1" fill-rule="nonzero"/><g clip-path="url(#a426834053)"><path fill="#000000" d="M 339.636719 518.453125 C 395.4375 518.453125 440.84375 473.046875 440.84375 417.246094 L 440.84375 185.171875 L 484.816406 164.949219 C 499.601562 158.164062 509.125 142.117188 509.125 123.980469 C 509.125 109.625 502.210938 97.101562 490.207031 89.621094 C 477.507812 81.703125 461.71875 81.050781 447.847656 87.878906 L 376.867188 122.890625 C 363.730469 130.460938 355.554688 144.636719 355.554688 159.816406 L 355.554688 317.300781 C 350.335938 316.433594 344.988281 316.039062 339.636719 316.039062 C 283.835938 316.039062 238.429688 361.402344 238.429688 417.203125 C 238.429688 473.046875 283.835938 518.453125 339.636719 518.453125 Z M 339.636719 338.308594 C 347.683594 338.308594 355.6875 339.527344 363.339844 341.917969 C 366.734375 343.007812 370.429688 342.398438 373.300781 340.308594 C 376.128906 338.222656 377.824219 334.875 377.824219 331.308594 L 377.824219 159.816406 C 377.824219 152.554688 381.738281 145.769531 387.390625 142.507812 L 457.675781 107.886719 C 464.589844 104.496094 472.332031 104.710938 478.421875 108.496094 C 481.597656 110.453125 486.859375 115.0625 486.859375 123.980469 C 486.859375 131.722656 483.378906 141.160156 475.550781 144.726562 L 425.054688 167.90625 C 421.097656 169.734375 418.574219 173.648438 418.574219 177.996094 L 418.574219 417.246094 C 418.574219 460.738281 383.171875 496.1875 339.636719 496.1875 C 296.144531 496.1875 260.699219 460.738281 260.699219 417.203125 C 260.699219 373.710938 296.144531 338.308594 339.636719 338.308594 " fill-opacity="1" fill-rule="nonzero"/></g><path stroke-linecap="butt" transform="matrix(0.641649, -0.388312, 0.388312, 0.641649, 599.86339, 379.040303)" fill="none" stroke-linejoin="miter" d="M 0.000269063 2.001126 L 113.786835 2.00288 " stroke="#000000" stroke-width="4" stroke-opacity="1" stroke-miterlimit="4"/></svg>