<svg xmlns="http://www.w3.org/2000/svg" xmlns:xlink="http://www.w3.org/1999/xlink" width="1366" zoomAndPan="magnify" viewBox="0 0 1024.5 576" height="768" preserveAspectRatio="xMidYMid meet" version="1.0"><defs><g/></defs><g fill="#85644c" fill-opacity="1"><g transform="translate(227.677765, 332.400221)"><g><path d="M 55.78125 9.75 C 55.175781 9.75 54.566406 9.679688 53.953125 9.546875 C 50.703125 8.941406 49.078125 6.066406 49.078125 0.921875 C 49.078125 -7.410156 53.273438 -21.601562 61.671875 -41.65625 C 64.921875 -49.238281 67.328125 -56.617188 68.890625 -63.796875 C 69.492188 -66.578125 69.796875 -68.796875 69.796875 -70.453125 C 69.796875 -72.109375 69.726562 -73.410156 69.59375 -74.359375 C 69.257812 -77.347656 68.144531 -79.414062 66.25 -80.5625 C 62.863281 -82.394531 59.070312 -83.3125 54.875 -83.3125 C 50.46875 -83.3125 45.828125 -82.226562 40.953125 -80.0625 C 36.078125 -77.894531 31.488281 -75.25 27.1875 -72.125 C 22.882812 -69.007812 18.972656 -65.300781 15.453125 -61 C 11.929688 -56.707031 9.304688 -52.207031 7.578125 -47.5 C 5.847656 -42.789062 4.984375 -38.539062 4.984375 -34.75 C 4.984375 -33.1875 5.117188 -31.695312 5.390625 -30.28125 C 6.472656 -25.601562 8.503906 -22.113281 11.484375 -19.8125 C 14.460938 -17.507812 17.984375 -16.359375 22.046875 -16.359375 C 27.742188 -16.359375 33.078125 -18.863281 38.046875 -23.875 C 43.023438 -28.882812 45.515625 -34.203125 45.515625 -39.828125 C 45.515625 -42.867188 44.90625 -45.066406 43.6875 -46.421875 C 42.46875 -47.773438 41.210938 -48.453125 39.921875 -48.453125 C 38.640625 -48.453125 37.351562 -48.265625 36.0625 -47.890625 C 34.78125 -47.523438 34.140625 -47.5625 34.140625 -48 C 34.140625 -48.4375 34.914062 -49.007812 36.46875 -49.71875 C 38.03125 -50.4375 39.65625 -50.796875 41.34375 -50.796875 C 43.039062 -50.796875 44.601562 -50.285156 46.03125 -49.265625 C 48.664062 -47.234375 49.984375 -44.148438 49.984375 -40.015625 C 49.984375 -35.890625 48.410156 -31.742188 45.265625 -27.578125 C 42.117188 -23.410156 38.242188 -20.054688 33.640625 -17.515625 C 29.035156 -14.984375 24.476562 -13.71875 19.96875 -13.71875 C 15.46875 -13.71875 11.285156 -15.359375 7.421875 -18.640625 C 3.566406 -21.921875 0.992188 -26.34375 -0.296875 -31.90625 C -0.640625 -33.53125 -0.8125 -35.253906 -0.8125 -37.078125 C -0.8125 -41.347656 0.238281 -45.988281 2.34375 -51 C 4.445312 -56.007812 7.476562 -60.664062 11.4375 -64.96875 C 15.394531 -69.269531 19.675781 -72.859375 24.28125 -75.734375 C 28.894531 -78.617188 33.773438 -81.007812 38.921875 -82.90625 C 44.066406 -84.863281 48.90625 -85.84375 53.4375 -85.84375 C 57.976562 -85.84375 62.113281 -85.132812 65.84375 -83.71875 C 72.40625 -80.875 75.6875 -74.84375 75.6875 -65.625 C 75.6875 -58.851562 73.25 -50.457031 68.375 -40.4375 C 65.332031 -34.207031 62.625 -27.5 60.25 -20.3125 C 56.726562 -9.6875 54.96875 -2.304688 54.96875 1.828125 C 54.96875 4.941406 56.019531 6.5 58.125 6.5 C 62.320312 6.5 69.671875 1.046875 80.171875 -9.859375 C 87.546875 -17.503906 93.332031 -25.898438 97.53125 -35.046875 C 100.238281 -40.867188 101.59375 -46.222656 101.59375 -51.109375 C 101.59375 -53.679688 101.390625 -55.488281 100.984375 -56.53125 C 100.578125 -57.582031 100.304688 -58.257812 100.171875 -58.5625 C 100.035156 -58.875 99.765625 -59.144531 99.359375 -59.375 C 98.953125 -59.613281 98.679688 -59.734375 98.546875 -59.734375 C 97.597656 -60.003906 96.613281 -60.222656 95.59375 -60.390625 C 94.582031 -60.566406 93.992188 -61.023438 93.828125 -61.765625 C 93.660156 -62.515625 94.015625 -62.957031 94.890625 -63.09375 L 96.828125 -62.890625 C 99.941406 -62.003906 102.648438 -59.800781 104.953125 -56.28125 C 106.242188 -54.320312 106.890625 -51.96875 106.890625 -49.21875 C 106.890625 -46.476562 106.242188 -43.242188 104.953125 -39.515625 C 101.835938 -31.253906 97.03125 -23.109375 90.53125 -15.078125 C 84.03125 -7.054688 77.613281 -0.914062 71.28125 3.34375 C 64.945312 7.613281 59.78125 9.75 55.78125 9.75 Z M 55.78125 9.75 "/></g></g></g><g fill="#85644c" fill-opacity="1"><g transform="translate(326.729248, 332.400221)"><g><path d="M 36.671875 -27.53125 C 35.453125 -26.3125 33.722656 -23.550781 31.484375 -19.25 C 29.253906 -14.945312 27.921875 -11.726562 27.484375 -9.59375 C 27.046875 -7.46875 26.828125 -5.742188 26.828125 -4.421875 C 26.828125 -3.097656 27.332031 -2.4375 28.34375 -2.4375 C 29.632812 -2.4375 31.226562 -3.625 33.125 -6 C 35.894531 -9.445312 38.632812 -13.945312 41.34375 -19.5 C 41.613281 -20.113281 41.921875 -20.453125 42.265625 -20.515625 C 42.804688 -20.722656 43.078125 -20.519531 43.078125 -19.90625 C 43.078125 -19.570312 42.972656 -19.164062 42.765625 -18.6875 C 36.535156 -6.09375 31.289062 0.203125 27.03125 0.203125 C 25.0625 0.203125 23.46875 -0.742188 22.25 -2.640625 C 21.632812 -3.660156 21.328125 -5.015625 21.328125 -6.703125 C 21.328125 -8.398438 21.664062 -10.46875 22.34375 -12.90625 C 16.925781 -4.164062 12.253906 0.203125 8.328125 0.203125 C 7.242188 0.203125 6.265625 -0.132812 5.390625 -0.8125 C 3.359375 -2.238281 2.34375 -4.675781 2.34375 -8.125 C 2.34375 -14.757812 5.21875 -21.5 10.96875 -28.34375 C 14.21875 -32.132812 18.210938 -34.609375 22.953125 -35.765625 C 24.242188 -36.097656 25.46875 -36.265625 26.625 -36.265625 C 29.738281 -36.265625 32.378906 -35.179688 34.546875 -33.015625 C 35.222656 -32.273438 35.425781 -31.566406 35.15625 -30.890625 C 34.882812 -30.210938 34.304688 -29.941406 33.421875 -30.078125 C 32.679688 -32.515625 31.054688 -33.734375 28.546875 -33.734375 C 25.628906 -33.734375 22.039062 -31.429688 17.78125 -26.828125 C 15.34375 -24.109375 13.070312 -20.921875 10.96875 -17.265625 C 8.332031 -12.867188 7.015625 -9.347656 7.015625 -6.703125 C 7.015625 -4.066406 7.859375 -2.75 9.546875 -2.75 C 13.609375 -2.75 18.925781 -8.976562 25.5 -21.4375 C 26.789062 -23.9375 27.875 -25.644531 28.75 -26.5625 C 29.632812 -27.476562 30.753906 -27.9375 32.109375 -27.9375 C 32.378906 -27.9375 33.070312 -27.832031 34.1875 -27.625 C 35.300781 -27.425781 36.128906 -27.394531 36.671875 -27.53125 Z M 36.671875 -27.53125 "/></g></g></g><g fill="#85644c" fill-opacity="1"><g transform="translate(362.286183, 332.400221)"><g><path d="M 11.375 -19.609375 C 11.3125 -19.335938 11.007812 -18.40625 10.46875 -16.8125 C 9.925781 -15.21875 9.46875 -13.691406 9.09375 -12.234375 C 8.71875 -10.785156 8.53125 -9.332031 8.53125 -7.875 C 8.53125 -6.414062 8.867188 -5.0625 9.546875 -3.8125 C 10.222656 -2.5625 11.304688 -1.9375 12.796875 -1.9375 C 15.234375 -1.9375 17.601562 -3.578125 19.90625 -6.859375 C 22.207031 -10.140625 24.648438 -14.320312 27.234375 -19.40625 C 27.773438 -20.351562 28.28125 -20.722656 28.75 -20.515625 C 29.09375 -20.242188 29.160156 -19.890625 28.953125 -19.453125 C 28.753906 -19.015625 28.332031 -18.066406 27.6875 -16.609375 C 27.039062 -15.148438 26.566406 -14.132812 26.265625 -13.5625 C 25.960938 -12.988281 25.421875 -11.972656 24.640625 -10.515625 C 23.859375 -9.054688 23.175781 -7.972656 22.59375 -7.265625 C 22.019531 -6.554688 21.242188 -5.640625 20.265625 -4.515625 C 19.285156 -3.398438 18.351562 -2.570312 17.46875 -2.03125 C 15.101562 -0.539062 12.867188 0.203125 10.765625 0.203125 C 8.671875 0.203125 7.046875 -0.253906 5.890625 -1.171875 C 4.742188 -2.085938 4.050781 -3.066406 3.8125 -4.109375 C 3.570312 -5.160156 3.453125 -6.09375 3.453125 -6.90625 C 3.453125 -7.71875 3.488281 -8.769531 3.5625 -10.0625 C 3.757812 -12.226562 4.179688 -14.328125 4.828125 -16.359375 C 5.472656 -18.390625 5.828125 -19.539062 5.890625 -19.8125 C 7.453125 -25.4375 9.671875 -31.566406 12.546875 -38.203125 C 15.421875 -44.835938 17.859375 -49.832031 19.859375 -53.1875 C 21.859375 -56.539062 23.429688 -58.828125 24.578125 -60.046875 C 26.890625 -62.484375 29.160156 -63.703125 31.390625 -63.703125 C 32.953125 -63.703125 34.003906 -62.582031 34.546875 -60.34375 C 34.609375 -59.9375 34.640625 -59.429688 34.640625 -58.828125 C 34.640625 -56.523438 33.828125 -53.609375 32.203125 -50.078125 C 26.378906 -37.148438 19.4375 -26.992188 11.375 -19.609375 Z M 12.1875 -22.859375 C 15.644531 -26.378906 19.066406 -30.8125 22.453125 -36.15625 C 25.835938 -41.507812 28.328125 -46.066406 29.921875 -49.828125 C 31.515625 -53.585938 32.3125 -56.144531 32.3125 -57.5 C 32.3125 -58.851562 32.070312 -59.53125 31.59375 -59.53125 C 30.914062 -59.53125 29.628906 -58.191406 27.734375 -55.515625 C 25.835938 -52.847656 23.28125 -48.039062 20.0625 -41.09375 C 16.84375 -34.15625 14.21875 -28.078125 12.1875 -22.859375 Z M 12.1875 -22.859375 "/></g></g></g><g fill="#85644c" fill-opacity="1"><g transform="translate(383.823527, 332.400221)"><g><path d="M 10.265625 -15.640625 C 9.316406 -13.335938 8.84375 -10.765625 8.84375 -7.921875 C 8.84375 -6.023438 9.265625 -4.519531 10.109375 -3.40625 C 10.953125 -2.289062 12.15625 -1.734375 13.71875 -1.734375 C 19.875 -1.734375 25.460938 -7.519531 30.484375 -19.09375 C 30.953125 -20.175781 31.523438 -20.648438 32.203125 -20.515625 C 32.472656 -20.453125 32.609375 -20.285156 32.609375 -20.015625 C 32.609375 -19.742188 31.847656 -17.960938 30.328125 -14.671875 C 28.804688 -11.390625 27.265625 -8.734375 25.703125 -6.703125 C 22.242188 -1.960938 17.976562 0.40625 12.90625 0.40625 C 10.195312 0.40625 7.894531 -0.472656 6 -2.234375 C 4.101562 -3.992188 3.15625 -6.394531 3.15625 -9.4375 C 3.15625 -12.488281 3.878906 -15.722656 5.328125 -19.140625 C 6.785156 -22.566406 8.765625 -25.753906 11.265625 -28.703125 C 13.773438 -31.648438 16.65625 -33.800781 19.90625 -35.15625 C 21.46875 -35.832031 22.957031 -36.171875 24.375 -36.171875 C 25.800781 -36.171875 27.125 -35.765625 28.34375 -34.953125 C 29.5 -34.003906 30.078125 -32.953125 30.078125 -31.796875 C 30.078125 -27.734375 27.632812 -23.835938 22.75 -20.109375 C 21.257812 -18.960938 19.160156 -17.929688 16.453125 -17.015625 C 13.742188 -16.097656 11.679688 -15.640625 10.265625 -15.640625 Z M 27.328125 -31.90625 C 27.328125 -33.257812 26.785156 -33.9375 25.703125 -33.9375 C 23.804688 -33.9375 20.925781 -31.597656 17.0625 -26.921875 C 14.757812 -24.078125 12.726562 -20.894531 10.96875 -17.375 C 12.125 -17.375 13.800781 -17.78125 16 -18.59375 C 18.195312 -19.40625 20.109375 -20.488281 21.734375 -21.84375 C 25.460938 -25.03125 27.328125 -28.382812 27.328125 -31.90625 Z M 27.328125 -31.90625 "/></g></g></g><g fill="#85644c" fill-opacity="1"><g transform="translate(408.814981, 332.400221)"><g/></g></g><g fill="#85644c" fill-opacity="1"><g transform="translate(435.127125, 332.400221)"><g><path d="M 34.03125 -40.4375 L 40.84375 -40.640625 C 43.6875 -40.640625 45.582031 -40.03125 46.53125 -38.8125 C 47 -38.269531 47.234375 -37.726562 47.234375 -37.1875 C 47.234375 -36.644531 47.066406 -36.171875 46.734375 -35.765625 C 45.921875 -34.742188 44.394531 -34.234375 42.15625 -34.234375 C 38.300781 -34.234375 34.882812 -35.722656 31.90625 -38.703125 C 24.3125 -37.554688 18.550781 -33.53125 14.625 -26.625 C 12.125 -22.144531 10.875 -17.773438 10.875 -13.515625 C 10.875 -11.140625 11.242188 -8.800781 11.984375 -6.5 C 14.222656 0 19.066406 3.25 26.515625 3.25 C 33.148438 3.25 38.90625 1.015625 43.78125 -3.453125 C 48.664062 -7.921875 51.109375 -12.359375 51.109375 -16.765625 C 51.109375 -18.859375 50.207031 -20.597656 48.40625 -21.984375 C 46.613281 -23.378906 44.71875 -24.191406 42.71875 -24.421875 C 40.71875 -24.660156 39.023438 -24.78125 37.640625 -24.78125 C 36.253906 -24.78125 34.457031 -24.628906 32.25 -24.328125 C 30.050781 -24.023438 27.867188 -23.128906 25.703125 -21.640625 C 23.128906 -19.878906 21.84375 -17.539062 21.84375 -14.625 C 21.84375 -11.71875 24.113281 -9.078125 28.65625 -6.703125 C 29.332031 -6.296875 29.617188 -5.769531 29.515625 -5.125 C 29.410156 -4.488281 29.125 -4.304688 28.65625 -4.578125 C 24.382812 -6.878906 21.367188 -9.484375 19.609375 -12.390625 C 18.390625 -14.285156 17.78125 -15.875 17.78125 -17.15625 C 17.78125 -18.445312 17.945312 -19.5 18.28125 -20.3125 C 19.09375 -22.6875 21.125 -24.6875 24.375 -26.3125 C 27.632812 -27.9375 31.769531 -28.75 36.78125 -28.75 L 54.765625 -28.75 C 58.285156 -28.75 62.617188 -29.9375 67.765625 -32.3125 C 70.265625 -33.457031 72.09375 -34.8125 73.25 -36.375 C 73.789062 -37.1875 74.0625 -38.046875 74.0625 -38.953125 C 74.0625 -39.867188 73.859375 -40.664062 73.453125 -41.34375 C 73.046875 -42.019531 72.875 -42.492188 72.9375 -42.765625 C 73.007812 -43.035156 73.195312 -43.171875 73.5 -43.171875 C 73.800781 -43.171875 74.054688 -43.003906 74.265625 -42.671875 C 75.210938 -41.046875 75.6875 -39.503906 75.6875 -38.046875 C 75.6875 -36.585938 75.242188 -35.25 74.359375 -34.03125 C 72.671875 -31.457031 69.796875 -29.390625 65.734375 -27.828125 C 61.671875 -26.273438 57.472656 -25.5 53.140625 -25.5 C 53.003906 -25.5 52.832031 -25.5 52.625 -25.5 C 55.195312 -23.394531 56.484375 -20.71875 56.484375 -17.46875 C 56.484375 -12.9375 53.84375 -8.265625 48.5625 -3.453125 C 46.050781 -1.078125 42.832031 0.851562 38.90625 2.34375 C 34.976562 3.832031 30.847656 4.578125 26.515625 4.578125 C 16.015625 4.578125 8.597656 1.523438 4.265625 -4.578125 C 2.097656 -7.617188 1.015625 -10.5625 1.015625 -13.40625 C 1.015625 -16.25 1.457031 -18.890625 2.34375 -21.328125 C 4.707031 -27.765625 9.476562 -32.742188 16.65625 -36.265625 C 20.789062 -38.296875 25.429688 -39.582031 30.578125 -40.125 C 28.679688 -42.769531 27.75 -46.085938 27.78125 -50.078125 C 27.820312 -54.078125 29.566406 -57.835938 33.015625 -61.359375 C 36.472656 -64.878906 40.453125 -67.4375 44.953125 -69.03125 C 49.460938 -70.625 53.847656 -71.421875 58.109375 -71.421875 C 61.628906 -71.421875 64.625 -70.707031 67.09375 -69.28125 C 69.570312 -67.863281 70.8125 -65.597656 70.8125 -62.484375 C 70.8125 -60.515625 70.203125 -58.769531 68.984375 -57.25 C 67.765625 -55.726562 66.390625 -54.96875 64.859375 -54.96875 C 63.335938 -54.96875 62.117188 -55.421875 61.203125 -56.328125 C 60.296875 -57.242188 59.84375 -58.378906 59.84375 -59.734375 C 59.84375 -61.085938 60.296875 -62.203125 61.203125 -63.078125 C 62.117188 -63.960938 63.1875 -64.40625 64.40625 -64.40625 C 65.21875 -64.40625 65.992188 -64.21875 66.734375 -63.84375 C 67.484375 -63.476562 67.925781 -63.054688 68.0625 -62.578125 C 68.132812 -62.984375 68.171875 -63.390625 68.171875 -63.796875 C 68.171875 -65.285156 67.5625 -66.4375 66.34375 -67.25 C 65.050781 -68.195312 63.117188 -68.671875 60.546875 -68.671875 C 57.972656 -68.671875 54.957031 -67.976562 51.5 -66.59375 C 48.050781 -65.207031 44.800781 -63.191406 41.75 -60.546875 C 38.707031 -57.910156 36.304688 -54.660156 34.546875 -50.796875 C 33.597656 -48.628906 33.125 -46.695312 33.125 -45 C 33.125 -43.3125 33.425781 -41.789062 34.03125 -40.4375 Z M 45.515625 -37.28125 C 45.515625 -38.5 43.007812 -39.109375 38 -39.109375 C 36.976562 -39.109375 35.925781 -39.078125 34.84375 -39.015625 C 36.46875 -36.984375 38.648438 -35.96875 41.390625 -35.96875 C 44.140625 -35.96875 45.515625 -36.40625 45.515625 -37.28125 Z M 45.515625 -37.28125 "/></g></g></g><g fill="#85644c" fill-opacity="1"><g transform="translate(496.691425, 332.400221)"><g/></g></g><g fill="#85644c" fill-opacity="1"><g transform="translate(523.003568, 332.400221)"><g><path d="M 120.90625 -71.71875 L 116.53125 -70.90625 C 111.320312 -61.90625 106.3125 -49.785156 101.5 -34.546875 C 99.664062 -28.785156 97.085938 -22.160156 93.765625 -14.671875 C 90.453125 -7.191406 86.765625 -0.269531 82.703125 6.09375 C 77.210938 14.625 69.910156 21.648438 60.796875 27.171875 C 51.691406 32.691406 43.382812 35.960938 35.875 36.984375 C 32.414062 37.453125 28.484375 37.6875 24.078125 37.6875 C 19.679688 37.6875 15.144531 36.910156 10.46875 35.359375 C 3.15625 32.921875 -1.851562 28.921875 -4.5625 23.359375 C -5.78125 20.785156 -6.390625 17.769531 -6.390625 14.3125 C -6.390625 10.863281 -5.476562 6.804688 -3.65625 2.140625 C -2.363281 -0.984375 -0.09375 -3.898438 3.15625 -6.609375 C 6.40625 -9.316406 8.945312 -10.703125 10.78125 -10.765625 C 11.59375 -10.835938 12 -10.703125 12 -10.359375 C 11.925781 -10.085938 11.484375 -9.75 10.671875 -9.34375 C 8.503906 -8.46875 6.097656 -6.535156 3.453125 -3.546875 C 0.816406 -0.566406 -0.921875 2.425781 -1.765625 5.4375 C -2.617188 8.445312 -3.046875 10.765625 -3.046875 12.390625 C -3.046875 17.335938 -1.722656 21.332031 0.921875 24.375 C 2.753906 26.414062 5.023438 28.25 7.734375 29.875 C 10.441406 31.5 13.351562 32.613281 16.46875 33.21875 C 21.070312 34.101562 24.726562 34.546875 27.4375 34.546875 C 30.144531 34.546875 32.550781 34.273438 34.65625 33.734375 C 39.257812 32.710938 43.710938 31.015625 48.015625 28.640625 C 52.316406 26.273438 56.125 23.6875 59.4375 20.875 C 62.757812 18.0625 66.0625 14.585938 69.34375 10.453125 C 72.625 6.328125 75.382812 2.570312 77.625 -0.8125 C 79.863281 -4.195312 82.234375 -8.257812 84.734375 -13 C 88.796875 -20.71875 92.960938 -29.59375 97.234375 -39.625 C 102.585938 -51.539062 108.003906 -61.832031 113.484375 -70.5 C 104.066406 -68.945312 94.484375 -65.5625 84.734375 -60.34375 C 79.796875 -57.707031 75.5625 -54.351562 72.03125 -50.28125 C 67.5 -45.132812 65.234375 -39.617188 65.234375 -33.734375 C 65.234375 -30.546875 65.992188 -28.070312 67.515625 -26.3125 C 69.035156 -24.550781 70.640625 -23.671875 72.328125 -23.671875 C 74.023438 -23.671875 75.890625 -24.039062 77.921875 -24.78125 C 79.960938 -25.53125 81.796875 -26.820312 83.421875 -28.65625 C 85.992188 -31.632812 87.28125 -35.050781 87.28125 -38.90625 C 87.28125 -40.53125 87.039062 -41.613281 86.5625 -42.15625 C 85.75 -42.695312 85.679688 -43.207031 86.359375 -43.6875 C 87.109375 -44.09375 87.890625 -43.851562 88.703125 -42.96875 C 89.378906 -41.476562 89.71875 -39.734375 89.71875 -37.734375 C 89.71875 -35.742188 88.972656 -33.460938 87.484375 -30.890625 C 84.972656 -26.617188 81.519531 -23.703125 77.125 -22.140625 C 75.082031 -21.460938 73.148438 -21.125 71.328125 -21.125 C 68.273438 -21.125 65.53125 -22.109375 63.09375 -24.078125 C 59.976562 -26.648438 58.421875 -30.101562 58.421875 -34.4375 C 58.421875 -39.925781 60.382812 -45.175781 64.3125 -50.1875 C 67.289062 -54.050781 70.796875 -57.234375 74.828125 -59.734375 C 78.859375 -62.242188 83.414062 -64.476562 88.5 -66.4375 C 96.6875 -69.625 105.59375 -71.859375 115.21875 -73.140625 C 116.03125 -74.492188 117.25 -76.085938 118.875 -77.921875 C 120.5 -79.753906 121.851562 -80.835938 122.9375 -81.171875 C 124.019531 -81.515625 124.898438 -81.6875 125.578125 -81.6875 C 127.953125 -81.6875 129.140625 -80.671875 129.140625 -78.640625 C 129.066406 -76.804688 128.316406 -75.394531 126.890625 -74.40625 C 125.472656 -73.425781 123.476562 -72.53125 120.90625 -71.71875 Z M 124.046875 -78.4375 C 123.910156 -78.4375 123.757812 -78.398438 123.59375 -78.328125 C 123.425781 -78.265625 123.1875 -78.113281 122.875 -77.875 C 122.570312 -77.632812 122.285156 -77.410156 122.015625 -77.203125 C 121.742188 -77.003906 121.421875 -76.703125 121.046875 -76.296875 C 120.679688 -75.890625 120.378906 -75.566406 120.140625 -75.328125 C 119.898438 -75.085938 119.578125 -74.75 119.171875 -74.3125 C 118.765625 -73.875 118.492188 -73.585938 118.359375 -73.453125 C 123.035156 -74.265625 125.335938 -75.519531 125.265625 -77.21875 C 125.128906 -78.03125 124.722656 -78.4375 124.046875 -78.4375 Z M 124.046875 -78.4375 "/></g></g></g><g fill="#85644c" fill-opacity="1"><g transform="translate(621.140744, 332.400221)"><g><path d="M 2.234375 -5.890625 C 2.234375 -8.804688 3.488281 -12.328125 6 -16.453125 C 4.914062 -16.453125 4.609375 -16.992188 5.078125 -18.078125 L 6.90625 -21.640625 C 9.207031 -26.046875 11.101562 -29.769531 12.59375 -32.8125 C 13.269531 -34.238281 14.59375 -34.953125 16.5625 -34.953125 L 22.75 -34.953125 C 20.3125 -33.191406 17.859375 -29.785156 15.390625 -24.734375 C 12.921875 -19.691406 11.007812 -15.726562 9.65625 -12.84375 C 8.300781 -9.96875 7.625 -7.785156 7.625 -6.296875 C 7.625 -4.804688 7.875 -3.753906 8.375 -3.140625 C 8.882812 -2.535156 9.582031 -2.234375 10.46875 -2.234375 C 11.75 -2.234375 13.539062 -3.585938 15.84375 -6.296875 C 19.4375 -10.492188 24.484375 -19.332031 30.984375 -32.8125 C 31.734375 -34.238281 33.054688 -34.953125 34.953125 -34.953125 L 40.4375 -34.953125 C 38.945312 -33.796875 37.773438 -32.609375 36.921875 -31.390625 C 36.078125 -30.171875 34.910156 -28.003906 33.421875 -24.890625 C 29.359375 -16.765625 27.09375 -11.378906 26.625 -8.734375 C 26.414062 -7.785156 26.3125 -6.90625 26.3125 -6.09375 C 26.3125 -3.925781 27.054688 -2.773438 28.546875 -2.640625 C 32.203125 -2.640625 36.707031 -8.296875 42.0625 -19.609375 C 42.46875 -20.554688 42.875 -20.925781 43.28125 -20.71875 C 43.6875 -20.519531 43.890625 -20.25 43.890625 -19.90625 C 43.890625 -19.570312 43.582031 -18.796875 42.96875 -17.578125 C 42.363281 -16.359375 41.769531 -15.171875 41.1875 -14.015625 C 40.613281 -12.867188 39.734375 -11.296875 38.546875 -9.296875 C 37.367188 -7.296875 36.269531 -5.722656 35.25 -4.578125 C 32.613281 -1.597656 30.023438 -0.109375 27.484375 -0.109375 C 24.941406 -0.109375 23.195312 -1.222656 22.25 -3.453125 C 21.84375 -4.472656 21.640625 -5.757812 21.640625 -7.3125 C 21.640625 -8.875 21.976562 -10.804688 22.65625 -13.109375 C 17.707031 -4.441406 13.132812 -0.109375 8.9375 -0.109375 C 5.28125 -0.109375 3.148438 -1.628906 2.546875 -4.671875 C 2.335938 -5.015625 2.234375 -5.421875 2.234375 -5.890625 Z M 2.234375 -5.890625 "/></g></g></g><g fill="#85644c" fill-opacity="1"><g transform="translate(657.408839, 332.400221)"><g><path d="M 36.671875 -27.53125 C 35.453125 -26.3125 33.722656 -23.550781 31.484375 -19.25 C 29.253906 -14.945312 27.921875 -11.726562 27.484375 -9.59375 C 27.046875 -7.46875 26.828125 -5.742188 26.828125 -4.421875 C 26.828125 -3.097656 27.332031 -2.4375 28.34375 -2.4375 C 29.632812 -2.4375 31.226562 -3.625 33.125 -6 C 35.894531 -9.445312 38.632812 -13.945312 41.34375 -19.5 C 41.613281 -20.113281 41.921875 -20.453125 42.265625 -20.515625 C 42.804688 -20.722656 43.078125 -20.519531 43.078125 -19.90625 C 43.078125 -19.570312 42.972656 -19.164062 42.765625 -18.6875 C 36.535156 -6.09375 31.289062 0.203125 27.03125 0.203125 C 25.0625 0.203125 23.46875 -0.742188 22.25 -2.640625 C 21.632812 -3.660156 21.328125 -5.015625 21.328125 -6.703125 C 21.328125 -8.398438 21.664062 -10.46875 22.34375 -12.90625 C 16.925781 -4.164062 12.253906 0.203125 8.328125 0.203125 C 7.242188 0.203125 6.265625 -0.132812 5.390625 -0.8125 C 3.359375 -2.238281 2.34375 -4.675781 2.34375 -8.125 C 2.34375 -14.757812 5.21875 -21.5 10.96875 -28.34375 C 14.21875 -32.132812 18.210938 -34.609375 22.953125 -35.765625 C 24.242188 -36.097656 25.46875 -36.265625 26.625 -36.265625 C 29.738281 -36.265625 32.378906 -35.179688 34.546875 -33.015625 C 35.222656 -32.273438 35.425781 -31.566406 35.15625 -30.890625 C 34.882812 -30.210938 34.304688 -29.941406 33.421875 -30.078125 C 32.679688 -32.515625 31.054688 -33.734375 28.546875 -33.734375 C 25.628906 -33.734375 22.039062 -31.429688 17.78125 -26.828125 C 15.34375 -24.109375 13.070312 -20.921875 10.96875 -17.265625 C 8.332031 -12.867188 7.015625 -9.347656 7.015625 -6.703125 C 7.015625 -4.066406 7.859375 -2.75 9.546875 -2.75 C 13.609375 -2.75 18.925781 -8.976562 25.5 -21.4375 C 26.789062 -23.9375 27.875 -25.644531 28.75 -26.5625 C 29.632812 -27.476562 30.753906 -27.9375 32.109375 -27.9375 C 32.378906 -27.9375 33.070312 -27.832031 34.1875 -27.625 C 35.300781 -27.425781 36.128906 -27.394531 36.671875 -27.53125 Z M 36.671875 -27.53125 "/></g></g></g><g fill="#85644c" fill-opacity="1"><g transform="translate(692.965774, 332.400221)"><g><path d="M 53.84375 -33.328125 C 45.582031 -18.628906 41.453125 -9.144531 41.453125 -4.875 C 41.453125 -2.976562 42.09375 -2.03125 43.375 -2.03125 C 45 -2.03125 46.863281 -3.25 48.96875 -5.6875 C 52.15625 -9.550781 54.929688 -14.191406 57.296875 -19.609375 C 57.703125 -20.554688 58.109375 -20.925781 58.515625 -20.71875 C 58.921875 -20.519531 59.125 -20.25 59.125 -19.90625 C 59.125 -19.570312 58.785156 -18.726562 58.109375 -17.375 C 57.429688 -16.019531 56.890625 -14.9375 56.484375 -14.125 C 56.078125 -13.3125 55.179688 -11.753906 53.796875 -9.453125 C 52.410156 -7.148438 51.222656 -5.457031 50.234375 -4.375 C 49.253906 -3.289062 48 -2.222656 46.46875 -1.171875 C 44.945312 -0.117188 43.222656 0.40625 41.296875 0.40625 C 39.367188 0.40625 37.726562 -0.539062 36.375 -2.4375 C 35.757812 -3.320312 35.453125 -4.523438 35.453125 -6.046875 C 35.453125 -7.566406 35.789062 -9.410156 36.46875 -11.578125 C 37.144531 -13.742188 39.007812 -17.265625 42.0625 -22.140625 C 42.800781 -23.359375 43.171875 -24.320312 43.171875 -25.03125 C 43.171875 -25.75 42.613281 -26.109375 41.5 -26.109375 C 40.382812 -26.109375 38.367188 -24.753906 35.453125 -22.046875 C 32.546875 -19.335938 29.484375 -15.679688 26.265625 -11.078125 C 23.046875 -6.472656 21.128906 -2.78125 20.515625 0 C 19.367188 0 18.523438 -0.472656 17.984375 -1.421875 C 17.441406 -2.367188 17.171875 -3.179688 17.171875 -3.859375 C 17.171875 -6.640625 19.03125 -11.921875 22.75 -19.703125 C 23.96875 -22.273438 24.609375 -24.019531 24.671875 -24.9375 C 24.742188 -25.851562 24.628906 -26.328125 24.328125 -26.359375 C 24.023438 -26.398438 23.601562 -26.285156 23.0625 -26.015625 C 21.84375 -25.398438 19.976562 -23.90625 17.46875 -21.53125 C 12.726562 -17.195312 8.054688 -10.597656 3.453125 -1.734375 C 3.117188 -0.984375 2.695312 -0.523438 2.1875 -0.359375 C 1.675781 -0.191406 0.675781 -0.0703125 -0.8125 0 C -2.300781 0.0703125 -3.285156 0.242188 -3.765625 0.515625 C -2.546875 -1.859375 -0.410156 -6.296875 2.640625 -12.796875 C 8.128906 -24.453125 11.785156 -31.160156 13.609375 -32.921875 C 14.421875 -33.734375 15.539062 -34.140625 16.96875 -34.140625 C 17.238281 -34.140625 17.929688 -34.035156 19.046875 -33.828125 C 20.160156 -33.628906 20.988281 -33.597656 21.53125 -33.734375 C 19.03125 -32.378906 14.9375 -26.007812 9.25 -14.625 C 12.425781 -18.550781 14.707031 -21.125 16.09375 -22.34375 C 17.488281 -23.5625 18.523438 -24.476562 19.203125 -25.09375 C 19.878906 -25.707031 20.398438 -26.179688 20.765625 -26.515625 C 21.140625 -26.859375 21.679688 -27.347656 22.390625 -27.984375 C 23.109375 -28.628906 23.648438 -29.101562 24.015625 -29.40625 C 24.390625 -29.71875 24.914062 -30.144531 25.59375 -30.6875 C 26.28125 -31.226562 26.804688 -31.582031 27.171875 -31.75 C 27.546875 -31.914062 28.054688 -32.203125 28.703125 -32.609375 C 29.347656 -33.015625 29.820312 -33.21875 30.125 -33.21875 C 30.425781 -33.21875 30.847656 -33.300781 31.390625 -33.46875 C 31.929688 -33.644531 32.304688 -33.597656 32.515625 -33.328125 C 33.867188 -32.785156 34.546875 -31.9375 34.546875 -30.78125 C 34.546875 -29.769531 33.394531 -27.160156 31.09375 -22.953125 C 28.789062 -18.753906 27.300781 -15.976562 26.625 -14.625 C 29.601562 -18.351562 32.445312 -21.421875 35.15625 -23.828125 C 37.863281 -26.234375 41.0625 -28.453125 44.75 -30.484375 C 48.4375 -32.515625 51.128906 -33.53125 52.828125 -33.53125 C 53.234375 -33.53125 53.570312 -33.460938 53.84375 -33.328125 Z M 53.84375 -33.328125 "/></g></g></g><g fill="#85644c" fill-opacity="1"><g transform="translate(744.472521, 332.400221)"><g><path d="M 36.265625 -27.640625 C 36.265625 -24.648438 35.484375 -21.359375 33.921875 -17.765625 C 32.367188 -14.179688 30.21875 -10.726562 27.46875 -7.40625 C 24.726562 -4.09375 21.394531 -1.828125 17.46875 -0.609375 C 15.976562 -0.203125 14.269531 0 12.34375 0 C 10.414062 0 8.300781 -0.609375 6 -1.828125 L -3.65625 22.25 C -4.675781 24.414062 -5.625 25.835938 -6.5 26.515625 C -7.382812 27.191406 -8.234375 27.53125 -9.046875 27.53125 C -9.859375 27.53125 -10.347656 27.53125 -10.515625 27.53125 C -10.679688 27.53125 -11.289062 27.425781 -12.34375 27.21875 C -13.394531 27.019531 -14.191406 26.957031 -14.734375 27.03125 C -13.242188 25.601562 -9.46875 18.84375 -3.40625 6.75 C 2.65625 -5.332031 6.09375 -13.472656 6.90625 -17.671875 C 6.164062 -16.585938 5.457031 -16.015625 4.78125 -15.953125 C 4.375 -15.953125 4.375 -16.335938 4.78125 -17.109375 C 5.1875 -17.890625 5.863281 -19.398438 6.8125 -21.640625 C 8.03125 -24.554688 8.640625 -27.25 8.640625 -29.71875 C 8.640625 -32.1875 8.164062 -33.625 7.21875 -34.03125 C 11.28125 -34.707031 13.648438 -35.03125 14.328125 -35 C 15.003906 -34.96875 15.425781 -34.679688 15.59375 -34.140625 C 15.757812 -33.597656 15.84375 -32.988281 15.84375 -32.3125 C 15.84375 -28.175781 14.894531 -23.566406 13 -18.484375 L 15.03125 -21.734375 C 17.46875 -25.671875 19.242188 -28.210938 20.359375 -29.359375 C 21.484375 -30.515625 22.6875 -31.703125 23.96875 -32.921875 C 25.9375 -34.816406 27.835938 -35.765625 29.671875 -35.765625 C 30.210938 -35.765625 30.71875 -35.695312 31.1875 -35.5625 C 34.570312 -34.675781 36.265625 -32.035156 36.265625 -27.640625 Z M 31.390625 -28.65625 C 31.390625 -29.738281 31.171875 -30.734375 30.734375 -31.640625 C 30.296875 -32.554688 29.601562 -33.015625 28.65625 -33.015625 C 26.28125 -33.015625 23.515625 -30.8125 20.359375 -26.40625 C 17.210938 -22.007812 12.695312 -14.328125 6.8125 -3.359375 C 7.6875 -2.472656 8.898438 -2.03125 10.453125 -2.03125 C 12.015625 -2.03125 14.21875 -3.21875 17.0625 -5.59375 C 21.601562 -9.382812 25.398438 -14.085938 28.453125 -19.703125 C 30.410156 -23.359375 31.390625 -26.34375 31.390625 -28.65625 Z M 31.390625 -28.65625 "/></g></g></g><g fill="#85644c" fill-opacity="1"><g transform="translate(778.607166, 332.400221)"><g><path d="M 19.703125 -39.515625 C 18.753906 -38.703125 17.703125 -38.296875 16.546875 -38.296875 C 15.398438 -38.296875 14.488281 -38.703125 13.8125 -39.515625 C 13.132812 -40.328125 12.863281 -41.3125 13 -42.46875 C 13.207031 -43.613281 13.785156 -44.59375 14.734375 -45.40625 C 15.679688 -46.21875 16.726562 -46.625 17.875 -46.625 C 19.03125 -46.625 19.960938 -46.21875 20.671875 -45.40625 C 21.378906 -44.59375 21.628906 -43.609375 21.421875 -42.453125 C 21.222656 -41.304688 20.648438 -40.328125 19.703125 -39.515625 Z M 9.75 -2.234375 C 11.039062 -2.234375 12.394531 -2.878906 13.8125 -4.171875 C 16.320312 -6.671875 19.503906 -11.78125 23.359375 -19.5 C 23.835938 -20.519531 24.3125 -20.828125 24.78125 -20.421875 C 24.914062 -20.285156 24.984375 -20.0625 24.984375 -19.75 C 24.984375 -19.445312 24.710938 -18.703125 24.171875 -17.515625 C 23.628906 -16.335938 23.140625 -15.273438 22.703125 -14.328125 C 22.265625 -13.378906 21.414062 -11.835938 20.15625 -9.703125 C 18.90625 -7.566406 17.773438 -5.925781 16.765625 -4.78125 C 13.984375 -1.59375 11.359375 0 8.890625 0 C 6.421875 0 4.644531 -0.742188 3.5625 -2.234375 C 2.476562 -3.722656 1.9375 -5.378906 1.9375 -7.203125 C 1.9375 -9.035156 2.375 -11.035156 3.25 -13.203125 L 9.75 -29.765625 C 9.882812 -30.171875 9.953125 -30.710938 9.953125 -31.390625 C 9.953125 -32.066406 9.546875 -32.945312 8.734375 -34.03125 L 14.328125 -34.140625 C 15.878906 -34.140625 16.789062 -33.847656 17.0625 -33.265625 C 17.332031 -32.691406 17.128906 -31.796875 16.453125 -30.578125 L 8.328125 -11.578125 C 7.179688 -9.078125 6.609375 -6.945312 6.609375 -5.1875 C 6.609375 -3.21875 7.65625 -2.234375 9.75 -2.234375 Z M 9.75 -2.234375 "/></g></g></g><g fill="#85644c" fill-opacity="1"><g transform="translate(360.532064, 201.910474)"><g><path d="M -2.984375 -19.703125 C -2.492188 -19.898438 -2.007812 -19.898438 -1.53125 -19.703125 C -1.050781 -19.503906 -0.710938 -19.160156 -0.515625 -18.671875 C -0.316406 -18.191406 -0.316406 -17.710938 -0.515625 -17.234375 C -0.710938 -16.753906 -1.054688 -16.414062 -1.546875 -16.21875 C -2.046875 -16.007812 -2.539062 -16.003906 -3.03125 -16.203125 C -3.519531 -16.398438 -3.863281 -16.738281 -4.0625 -17.21875 C -4.257812 -17.707031 -4.253906 -18.191406 -4.046875 -18.671875 C -3.835938 -19.148438 -3.484375 -19.492188 -2.984375 -19.703125 Z M 7.953125 2.8125 L 5.109375 3.96875 L -0.953125 -12.046875 L 0.90625 -12.8125 Z M 7.953125 2.8125 "/></g></g></g><g fill="#85644c" fill-opacity="1"><g transform="translate(370.210755, 197.65849)"><g><path d="M 15.625 -32.5625 L 24.078125 -8.453125 L 21.96875 -7.703125 L -0.390625 -21.828125 L 6.46875 -2.265625 L 3.921875 -1.375 L -4.53125 -25.484375 L -2.421875 -26.21875 L 19.953125 -12.109375 L 13.09375 -31.671875 Z M 15.625 -32.5625 "/></g></g></g><g fill="#85644c" fill-opacity="1"><g transform="translate(398.914485, 187.595941)"><g><path d="M 14.890625 -3.6875 C 12.441406 -3.039062 10.078125 -3 7.796875 -3.5625 C 5.515625 -4.132812 3.5625 -5.226562 1.9375 -6.84375 C 0.320312 -8.46875 -0.796875 -10.46875 -1.421875 -12.84375 C -2.046875 -15.21875 -2.050781 -17.503906 -1.4375 -19.703125 C -0.820312 -21.898438 0.332031 -23.804688 2.03125 -25.421875 C 3.738281 -27.046875 5.816406 -28.179688 8.265625 -28.828125 C 10.710938 -29.472656 13.0625 -29.507812 15.3125 -28.9375 C 17.5625 -28.375 19.5 -27.28125 21.125 -25.65625 C 22.757812 -24.039062 23.890625 -22.046875 24.515625 -19.671875 C 25.140625 -17.296875 25.140625 -15 24.515625 -12.78125 C 23.898438 -10.5625 22.753906 -8.648438 21.078125 -7.046875 C 19.398438 -5.453125 17.335938 -4.332031 14.890625 -3.6875 Z M 14.265625 -6.015625 C 16.210938 -6.523438 17.859375 -7.429688 19.203125 -8.734375 C 20.554688 -10.035156 21.472656 -11.582031 21.953125 -13.375 C 22.441406 -15.175781 22.429688 -17.046875 21.921875 -18.984375 C 21.410156 -20.910156 20.5 -22.535156 19.1875 -23.859375 C 17.882812 -25.191406 16.328125 -26.09375 14.515625 -26.5625 C 12.703125 -27.03125 10.820312 -27.007812 8.875 -26.5 C 6.914062 -25.976562 5.257812 -25.066406 3.90625 -23.765625 C 2.550781 -22.460938 1.625 -20.910156 1.125 -19.109375 C 0.632812 -17.304688 0.644531 -15.441406 1.15625 -13.515625 C 1.664062 -11.578125 2.578125 -9.945312 3.890625 -8.625 C 5.210938 -7.300781 6.78125 -6.40625 8.59375 -5.9375 C 10.414062 -5.46875 12.304688 -5.492188 14.265625 -6.015625 Z M 14.265625 -6.015625 "/></g></g></g><g fill="#85644c" fill-opacity="1"><g transform="translate(429.39163, 179.749967)"><g><path d="M 11.0625 -1.859375 C 9.195312 -1.503906 7.351562 -1.460938 5.53125 -1.734375 C 3.707031 -2.015625 2.234375 -2.5625 1.109375 -3.375 L 1.765625 -5.609375 C 2.835938 -4.867188 4.179688 -4.359375 5.796875 -4.078125 C 7.410156 -3.804688 9.019531 -3.820312 10.625 -4.125 C 12.875 -4.550781 14.476562 -5.28125 15.4375 -6.3125 C 16.40625 -7.34375 16.769531 -8.519531 16.53125 -9.84375 C 16.332031 -10.84375 15.875 -11.582031 15.15625 -12.0625 C 14.4375 -12.550781 13.601562 -12.875 12.65625 -13.03125 C 11.707031 -13.1875 10.410156 -13.304688 8.765625 -13.390625 C 6.785156 -13.515625 5.191406 -13.691406 3.984375 -13.921875 C 2.773438 -14.148438 1.679688 -14.644531 0.703125 -15.40625 C -0.265625 -16.164062 -0.894531 -17.320312 -1.1875 -18.875 C -1.425781 -20.144531 -1.304688 -21.359375 -0.828125 -22.515625 C -0.359375 -23.679688 0.503906 -24.703125 1.765625 -25.578125 C 3.035156 -26.460938 4.703125 -27.097656 6.765625 -27.484375 C 8.203125 -27.753906 9.644531 -27.820312 11.09375 -27.6875 C 12.539062 -27.5625 13.832031 -27.25 14.96875 -26.75 L 14.46875 -24.46875 C 13.289062 -24.957031 12.066406 -25.257812 10.796875 -25.375 C 9.535156 -25.5 8.332031 -25.453125 7.1875 -25.234375 C 4.988281 -24.828125 3.410156 -24.09375 2.453125 -23.03125 C 1.503906 -21.96875 1.160156 -20.765625 1.421875 -19.421875 C 1.609375 -18.421875 2.0625 -17.671875 2.78125 -17.171875 C 3.507812 -16.679688 4.363281 -16.363281 5.34375 -16.21875 C 6.320312 -16.070312 7.628906 -15.957031 9.265625 -15.875 C 11.191406 -15.75 12.765625 -15.578125 13.984375 -15.359375 C 15.210938 -15.140625 16.300781 -14.65625 17.25 -13.90625 C 18.207031 -13.15625 18.832031 -12.007812 19.125 -10.46875 C 19.363281 -9.207031 19.238281 -7.988281 18.75 -6.8125 C 18.269531 -5.644531 17.378906 -4.625 16.078125 -3.75 C 14.785156 -2.875 13.113281 -2.242188 11.0625 -1.859375 Z M 11.0625 -1.859375 "/></g></g></g><g fill="#85644c" fill-opacity="1"><g transform="translate(452.639727, 175.534687)"><g/></g></g><g fill="#85644c" fill-opacity="1"><g transform="translate(463.199131, 173.845246)"><g><path d="M 15.203125 -1.1875 C 12.691406 -0.957031 10.367188 -1.304688 8.234375 -2.234375 C 6.109375 -3.160156 4.375 -4.554688 3.03125 -6.421875 C 1.695312 -8.285156 0.914062 -10.441406 0.6875 -12.890625 C 0.457031 -15.335938 0.828125 -17.601562 1.796875 -19.6875 C 2.773438 -21.769531 4.226562 -23.460938 6.15625 -24.765625 C 8.09375 -26.066406 10.320312 -26.835938 12.84375 -27.078125 C 14.726562 -27.242188 16.5 -27.085938 18.15625 -26.609375 C 19.820312 -26.128906 21.265625 -25.335938 22.484375 -24.234375 L 20.953125 -22.359375 C 18.773438 -24.191406 16.171875 -24.96875 13.140625 -24.6875 C 11.140625 -24.5 9.351562 -23.867188 7.78125 -22.796875 C 6.21875 -21.722656 5.046875 -20.34375 4.265625 -18.65625 C 3.484375 -16.96875 3.179688 -15.128906 3.359375 -13.140625 C 3.546875 -11.148438 4.179688 -9.398438 5.265625 -7.890625 C 6.347656 -6.390625 7.753906 -5.25 9.484375 -4.46875 C 11.222656 -3.695312 13.09375 -3.40625 15.09375 -3.59375 C 18.15625 -3.875 20.570312 -5.128906 22.34375 -7.359375 L 24.203125 -5.8125 C 23.203125 -4.5 21.925781 -3.441406 20.375 -2.640625 C 18.820312 -1.847656 17.097656 -1.363281 15.203125 -1.1875 Z M 15.203125 -1.1875 "/></g></g></g><g fill="#85644c" fill-opacity="1"><g transform="translate(490.191859, 171.367405)"><g><path d="M 20.03125 -7.28125 L 5.796875 -6.96875 L 2.890625 -0.0625 L 0.078125 0 L 11.171875 -25.8125 L 13.84375 -25.875 L 26.09375 -0.59375 L 23.25 -0.53125 Z M 19 -9.453125 L 12.546875 -23.03125 L 6.734375 -9.171875 Z M 19 -9.453125 "/></g></g></g><g fill="#85644c" fill-opacity="1"><g transform="translate(517.277028, 170.847013)"><g><path d="M 11.171875 0.703125 C 9.285156 0.617188 7.484375 0.238281 5.765625 -0.4375 C 4.054688 -1.125 2.753906 -1.988281 1.859375 -3.03125 L 3 -5.0625 C 3.875 -4.101562 5.066406 -3.300781 6.578125 -2.65625 C 8.085938 -2.019531 9.65625 -1.664062 11.28125 -1.59375 C 13.570312 -1.5 15.304688 -1.847656 16.484375 -2.640625 C 17.660156 -3.429688 18.273438 -4.5 18.328125 -5.84375 C 18.367188 -6.863281 18.09375 -7.6875 17.5 -8.3125 C 16.90625 -8.945312 16.164062 -9.445312 15.28125 -9.8125 C 14.394531 -10.175781 13.160156 -10.585938 11.578125 -11.046875 C 9.691406 -11.609375 8.179688 -12.140625 7.046875 -12.640625 C 5.921875 -13.140625 4.972656 -13.867188 4.203125 -14.828125 C 3.429688 -15.796875 3.078125 -17.070312 3.140625 -18.65625 C 3.203125 -19.945312 3.59375 -21.101562 4.3125 -22.125 C 5.03125 -23.15625 6.109375 -23.953125 7.546875 -24.515625 C 8.984375 -25.078125 10.75 -25.316406 12.84375 -25.234375 C 14.300781 -25.171875 15.71875 -24.910156 17.09375 -24.453125 C 18.476562 -23.992188 19.664062 -23.390625 20.65625 -22.640625 L 19.65625 -20.546875 C 18.613281 -21.285156 17.488281 -21.859375 16.28125 -22.265625 C 15.082031 -22.671875 13.898438 -22.898438 12.734375 -22.953125 C 10.503906 -23.046875 8.804688 -22.679688 7.640625 -21.859375 C 6.472656 -21.046875 5.863281 -19.957031 5.8125 -18.59375 C 5.757812 -17.570312 6.03125 -16.738281 6.625 -16.09375 C 7.21875 -15.445312 7.972656 -14.941406 8.890625 -14.578125 C 9.816406 -14.210938 11.0625 -13.800781 12.625 -13.34375 C 14.476562 -12.789062 15.972656 -12.265625 17.109375 -11.765625 C 18.242188 -11.273438 19.191406 -10.554688 19.953125 -9.609375 C 20.722656 -8.660156 21.070312 -7.410156 21 -5.859375 C 20.945312 -4.566406 20.550781 -3.40625 19.8125 -2.375 C 19.070312 -1.351562 17.96875 -0.5625 16.5 0 C 15.039062 0.550781 13.265625 0.785156 11.171875 0.703125 Z M 11.171875 0.703125 "/></g></g></g><g fill="#85644c" fill-opacity="1"><g transform="translate(540.628495, 171.816565)"><g><path d="M 20.796875 -4.609375 L 6.65625 -6.140625 L 2.875 0.3125 L 0.078125 0.015625 L 14.453125 -24.125 L 17.109375 -23.828125 L 25.9375 2.8125 L 23.109375 2.515625 Z M 20.0625 -6.890625 L 15.4375 -21.1875 L 7.859375 -8.21875 Z M 20.0625 -6.890625 "/></g></g></g><g fill="#85644c" fill-opacity="1"><g transform="translate(567.395235, 174.576635)"><g><path d="M 34.953125 -19.328125 L 30.15625 5.765625 L 27.609375 5.28125 L 31.453125 -14.796875 L 18.34375 0.203125 L 17.109375 -0.03125 L 10.453125 -18.703125 L 6.625 1.265625 L 4.078125 0.78125 L 8.875 -24.3125 L 11.078125 -23.890625 L 18.421875 -3.203125 L 32.765625 -19.734375 Z M 34.953125 -19.328125 "/></g></g></g><g fill="#85644c" fill-opacity="1"><g transform="translate(602.254732, 181.371562)"><g><path d="M 14.6875 4.375 C 12.25 3.6875 10.191406 2.519531 8.515625 0.875 C 6.847656 -0.769531 5.722656 -2.695312 5.140625 -4.90625 C 4.566406 -7.125 4.617188 -9.414062 5.296875 -11.78125 C 5.960938 -14.144531 7.117188 -16.117188 8.765625 -17.703125 C 10.421875 -19.285156 12.390625 -20.335938 14.671875 -20.859375 C 16.960938 -21.390625 19.328125 -21.3125 21.765625 -20.625 C 24.203125 -19.9375 26.242188 -18.773438 27.890625 -17.140625 C 29.535156 -15.515625 30.648438 -13.585938 31.234375 -11.359375 C 31.828125 -9.140625 31.789062 -6.847656 31.125 -4.484375 C 30.445312 -2.117188 29.273438 -0.140625 27.609375 1.453125 C 25.953125 3.046875 23.992188 4.101562 21.734375 4.625 C 19.472656 5.144531 17.125 5.0625 14.6875 4.375 Z M 15.34375 2.0625 C 17.289062 2.613281 19.171875 2.671875 20.984375 2.234375 C 22.804688 1.804688 24.378906 0.941406 25.703125 -0.359375 C 27.035156 -1.671875 27.976562 -3.289062 28.53125 -5.21875 C 29.070312 -7.132812 29.113281 -8.992188 28.65625 -10.796875 C 28.207031 -12.609375 27.320312 -14.175781 26 -15.5 C 24.6875 -16.820312 23.054688 -17.757812 21.109375 -18.3125 C 19.160156 -18.863281 17.269531 -18.921875 15.4375 -18.484375 C 13.613281 -18.054688 12.03125 -17.191406 10.6875 -15.890625 C 9.351562 -14.585938 8.414062 -12.976562 7.875 -11.0625 C 7.320312 -9.132812 7.273438 -7.265625 7.734375 -5.453125 C 8.203125 -3.640625 9.097656 -2.070312 10.421875 -0.75 C 11.753906 0.570312 13.394531 1.507812 15.34375 2.0625 Z M 15.34375 2.0625 "/></g></g></g><g fill="#85644c" fill-opacity="1"><g transform="translate(632.489185, 190.106103)"><g><path d="M 10.453125 4.015625 C 8.671875 3.367188 7.066406 2.460938 5.640625 1.296875 C 4.210938 0.128906 3.222656 -1.082031 2.671875 -2.34375 L 4.375 -3.9375 C 4.925781 -2.757812 5.828125 -1.632812 7.078125 -0.5625 C 8.328125 0.5 9.710938 1.304688 11.234375 1.859375 C 13.390625 2.628906 15.144531 2.8125 16.5 2.40625 C 17.863281 2.007812 18.773438 1.179688 19.234375 -0.078125 C 19.578125 -1.035156 19.5625 -1.90625 19.1875 -2.6875 C 18.8125 -3.476562 18.253906 -4.175781 17.515625 -4.78125 C 16.785156 -5.394531 15.734375 -6.160156 14.359375 -7.078125 C 12.722656 -8.179688 11.441406 -9.140625 10.515625 -9.953125 C 9.585938 -10.765625 8.894531 -11.742188 8.4375 -12.890625 C 7.988281 -14.046875 8.035156 -15.367188 8.578125 -16.859375 C 9.015625 -18.066406 9.726562 -19.050781 10.71875 -19.8125 C 11.71875 -20.582031 12.988281 -21.023438 14.53125 -21.140625 C 16.070312 -21.253906 17.828125 -20.957031 19.796875 -20.25 C 21.171875 -19.75 22.445312 -19.070312 23.625 -18.21875 C 24.8125 -17.363281 25.765625 -16.429688 26.484375 -15.421875 L 24.90625 -13.71875 C 24.132812 -14.738281 23.234375 -15.617188 22.203125 -16.359375 C 21.179688 -17.109375 20.117188 -17.6875 19.015625 -18.09375 C 16.910156 -18.851562 15.179688 -19.015625 13.828125 -18.578125 C 12.472656 -18.148438 11.5625 -17.289062 11.09375 -16 C 10.75 -15.039062 10.765625 -14.164062 11.140625 -13.375 C 11.515625 -12.582031 12.082031 -11.875 12.84375 -11.25 C 13.613281 -10.625 14.679688 -9.859375 16.046875 -8.953125 C 17.640625 -7.878906 18.90625 -6.9375 19.84375 -6.125 C 20.78125 -5.3125 21.472656 -4.335938 21.921875 -3.203125 C 22.367188 -2.066406 22.328125 -0.765625 21.796875 0.703125 C 21.359375 1.910156 20.632812 2.894531 19.625 3.65625 C 18.613281 4.414062 17.320312 4.84375 15.75 4.9375 C 14.1875 5.03125 12.421875 4.722656 10.453125 4.015625 Z M 10.453125 4.015625 "/></g></g></g><g fill="#85644c" fill-opacity="1"><g transform="translate(654.653932, 198.292524)"><g><path d="M 12.703125 -22.390625 L 15.546875 -21.234375 L 8.21875 -4.90625 L 6.359375 -5.671875 Z M 4.3125 1.984375 C 3.8125 1.773438 3.457031 1.425781 3.25 0.9375 C 3.050781 0.445312 3.050781 -0.0351562 3.25 -0.515625 C 3.445312 -1.003906 3.78125 -1.34375 4.25 -1.53125 C 4.726562 -1.726562 5.226562 -1.71875 5.75 -1.5 C 6.238281 -1.300781 6.582031 -0.96875 6.78125 -0.5 C 6.988281 -0.03125 6.992188 0.445312 6.796875 0.9375 C 6.597656 1.414062 6.253906 1.757812 5.765625 1.96875 C 5.285156 2.175781 4.800781 2.179688 4.3125 1.984375 Z M 4.3125 1.984375 "/></g></g></g><g fill="#85644c" fill-opacity="1"><g transform="translate(368.251145, 433.626827)"><g><path d="M 8.421875 0.203125 C 7.023438 0.203125 5.785156 -0.148438 4.703125 -0.859375 C 3.617188 -1.578125 2.765625 -2.617188 2.140625 -3.984375 C 1.515625 -5.347656 1.203125 -6.960938 1.203125 -8.828125 C 1.203125 -10.691406 1.515625 -12.300781 2.140625 -13.65625 C 2.765625 -15.019531 3.617188 -16.054688 4.703125 -16.765625 C 5.785156 -17.484375 7.023438 -17.84375 8.421875 -17.84375 C 9.796875 -17.84375 11.023438 -17.484375 12.109375 -16.765625 C 13.191406 -16.054688 14.039062 -15.019531 14.65625 -13.65625 C 15.28125 -12.300781 15.59375 -10.691406 15.59375 -8.828125 C 15.59375 -6.960938 15.28125 -5.347656 14.65625 -3.984375 C 14.039062 -2.617188 13.191406 -1.578125 12.109375 -0.859375 C 11.023438 -0.148438 9.796875 0.203125 8.421875 0.203125 Z M 8.421875 -2.046875 C 9.828125 -2.046875 10.953125 -2.625 11.796875 -3.78125 C 12.648438 -4.9375 13.078125 -6.617188 13.078125 -8.828125 C 13.078125 -11.023438 12.648438 -12.703125 11.796875 -13.859375 C 10.953125 -15.015625 9.828125 -15.59375 8.421875 -15.59375 C 6.992188 -15.59375 5.851562 -15.015625 5 -13.859375 C 4.15625 -12.703125 3.734375 -11.023438 3.734375 -8.828125 C 3.734375 -6.617188 4.15625 -4.9375 5 -3.78125 C 5.851562 -2.625 6.992188 -2.046875 8.421875 -2.046875 Z M 8.421875 -2.046875 "/></g></g></g><g fill="#85644c" fill-opacity="1"><g transform="translate(386.272984, 433.626827)"><g><path d="M 8.828125 -10.71875 C 9.984375 -10.71875 11.019531 -10.5 11.9375 -10.0625 C 12.851562 -9.625 13.570312 -8.992188 14.09375 -8.171875 C 14.613281 -7.359375 14.875 -6.425781 14.875 -5.375 C 14.875 -4.257812 14.597656 -3.28125 14.046875 -2.4375 C 13.503906 -1.601562 12.757812 -0.953125 11.8125 -0.484375 C 10.863281 -0.0234375 9.800781 0.203125 8.625 0.203125 C 6.25 0.203125 4.414062 -0.5625 3.125 -2.09375 C 1.84375 -3.625 1.203125 -5.789062 1.203125 -8.59375 C 1.203125 -10.5625 1.550781 -12.238281 2.25 -13.625 C 2.945312 -15.007812 3.921875 -16.054688 5.171875 -16.765625 C 6.429688 -17.484375 7.890625 -17.84375 9.546875 -17.84375 C 10.410156 -17.84375 11.21875 -17.753906 11.96875 -17.578125 C 12.726562 -17.398438 13.382812 -17.144531 13.9375 -16.8125 L 12.984375 -14.84375 C 12.140625 -15.394531 11.015625 -15.671875 9.609375 -15.671875 C 7.773438 -15.671875 6.335938 -15.101562 5.296875 -13.96875 C 4.253906 -12.84375 3.734375 -11.191406 3.734375 -9.015625 C 3.734375 -8.753906 3.738281 -8.546875 3.75 -8.390625 C 4.257812 -9.148438 4.953125 -9.726562 5.828125 -10.125 C 6.710938 -10.519531 7.710938 -10.71875 8.828125 -10.71875 Z M 8.515625 -1.84375 C 9.671875 -1.84375 10.609375 -2.148438 11.328125 -2.765625 C 12.054688 -3.390625 12.421875 -4.222656 12.421875 -5.265625 C 12.421875 -6.304688 12.054688 -7.132812 11.328125 -7.75 C 10.597656 -8.363281 9.617188 -8.671875 8.390625 -8.671875 C 7.597656 -8.671875 6.894531 -8.519531 6.28125 -8.21875 C 5.675781 -7.914062 5.195312 -7.503906 4.84375 -6.984375 C 4.5 -6.460938 4.328125 -5.882812 4.328125 -5.25 C 4.328125 -4.625 4.488281 -4.050781 4.8125 -3.53125 C 5.144531 -3.019531 5.625 -2.609375 6.25 -2.296875 C 6.882812 -1.992188 7.640625 -1.84375 8.515625 -1.84375 Z M 8.515625 -1.84375 "/></g></g></g><g fill="#85644c" fill-opacity="1"><g transform="translate(403.034563, 433.626827)"><g/></g></g><g fill="#85644c" fill-opacity="1"><g transform="translate(411.024741, 433.626827)"><g><path d="M 2.640625 -17.640625 L 10.078125 -17.640625 C 11.941406 -17.640625 13.597656 -17.269531 15.046875 -16.53125 C 16.492188 -15.789062 17.613281 -14.753906 18.40625 -13.421875 C 19.207031 -12.085938 19.609375 -10.554688 19.609375 -8.828125 C 19.609375 -7.085938 19.207031 -5.550781 18.40625 -4.21875 C 17.613281 -2.882812 16.492188 -1.847656 15.046875 -1.109375 C 13.597656 -0.367188 11.941406 0 10.078125 0 L 2.640625 0 Z M 9.9375 -2.1875 C 11.363281 -2.1875 12.617188 -2.460938 13.703125 -3.015625 C 14.785156 -3.578125 15.617188 -4.359375 16.203125 -5.359375 C 16.796875 -6.359375 17.09375 -7.515625 17.09375 -8.828125 C 17.09375 -10.128906 16.796875 -11.28125 16.203125 -12.28125 C 15.617188 -13.28125 14.785156 -14.054688 13.703125 -14.609375 C 12.617188 -15.171875 11.363281 -15.453125 9.9375 -15.453125 L 5.171875 -15.453125 L 5.171875 -2.1875 Z M 9.9375 -2.1875 "/></g></g></g><g fill="#85644c" fill-opacity="1"><g transform="translate(433.054201, 433.626827)"><g><path d="M 15.453125 -2.1875 L 15.453125 0 L 2.640625 0 L 2.640625 -17.640625 L 15.09375 -17.640625 L 15.09375 -15.453125 L 5.171875 -15.453125 L 5.171875 -10.03125 L 14.015625 -10.03125 L 14.015625 -7.890625 L 5.171875 -7.890625 L 5.171875 -2.1875 Z M 15.453125 -2.1875 "/></g></g></g><g fill="#85644c" fill-opacity="1"><g transform="translate(451.151656, 433.626827)"><g/></g></g><g fill="#85644c" fill-opacity="1"><g transform="translate(459.141835, 433.626827)"><g><path d="M 13.890625 -4.40625 L 4.515625 -4.40625 L 2.578125 0 L -0.03125 0 L 7.96875 -17.640625 L 10.453125 -17.640625 L 18.46875 0 L 15.828125 0 Z M 13 -6.421875 L 9.203125 -15.078125 L 5.390625 -6.421875 Z M 13 -6.421875 "/></g></g></g><g fill="#85644c" fill-opacity="1"><g transform="translate(478.802014, 433.626827)"><g><path d="M 14.515625 -9.15625 C 15.535156 -8.863281 16.335938 -8.34375 16.921875 -7.59375 C 17.515625 -6.851562 17.8125 -5.910156 17.8125 -4.765625 C 17.8125 -3.234375 17.234375 -2.054688 16.078125 -1.234375 C 14.929688 -0.410156 13.257812 0 11.0625 0 L 2.640625 0 L 2.640625 -17.640625 L 10.5625 -17.640625 C 12.570312 -17.640625 14.128906 -17.234375 15.234375 -16.421875 C 16.335938 -15.617188 16.890625 -14.503906 16.890625 -13.078125 C 16.890625 -12.148438 16.671875 -11.347656 16.234375 -10.671875 C 15.804688 -10.003906 15.234375 -9.5 14.515625 -9.15625 Z M 5.171875 -15.59375 L 5.171875 -9.953125 L 10.328125 -9.953125 C 11.628906 -9.953125 12.625 -10.191406 13.3125 -10.671875 C 14.007812 -11.148438 14.359375 -11.851562 14.359375 -12.78125 C 14.359375 -13.707031 14.007812 -14.40625 13.3125 -14.875 C 12.625 -15.351562 11.628906 -15.59375 10.328125 -15.59375 Z M 10.96875 -2.046875 C 12.394531 -2.046875 13.46875 -2.28125 14.1875 -2.75 C 14.90625 -3.21875 15.265625 -3.957031 15.265625 -4.96875 C 15.265625 -6.925781 13.832031 -7.90625 10.96875 -7.90625 L 5.171875 -7.90625 L 5.171875 -2.046875 Z M 10.96875 -2.046875 "/></g></g></g><g fill="#85644c" fill-opacity="1"><g transform="translate(499.092318, 433.626827)"><g><path d="M 14.4375 0 L 10.640625 -5.421875 C 10.171875 -5.390625 9.800781 -5.375 9.53125 -5.375 L 5.171875 -5.375 L 5.171875 0 L 2.640625 0 L 2.640625 -17.640625 L 9.53125 -17.640625 C 11.8125 -17.640625 13.609375 -17.09375 14.921875 -16 C 16.234375 -14.90625 16.890625 -13.40625 16.890625 -11.5 C 16.890625 -10.132812 16.550781 -8.972656 15.875 -8.015625 C 15.207031 -7.054688 14.25 -6.359375 13 -5.921875 L 17.1875 0 Z M 9.453125 -7.515625 C 11.046875 -7.515625 12.257812 -7.859375 13.09375 -8.546875 C 13.9375 -9.234375 14.359375 -10.21875 14.359375 -11.5 C 14.359375 -12.769531 13.9375 -13.742188 13.09375 -14.421875 C 12.257812 -15.109375 11.046875 -15.453125 9.453125 -15.453125 L 5.171875 -15.453125 L 5.171875 -7.515625 Z M 9.453125 -7.515625 "/></g></g></g><g fill="#85644c" fill-opacity="1"><g transform="translate(518.626469, 433.626827)"><g><path d="M 2.640625 -17.640625 L 5.171875 -17.640625 L 5.171875 0 L 2.640625 0 Z M 2.640625 -17.640625 "/></g></g></g><g fill="#85644c" fill-opacity="1"><g transform="translate(527.650056, 433.626827)"><g><path d="M 2.640625 -17.640625 L 5.171875 -17.640625 L 5.171875 -2.1875 L 14.71875 -2.1875 L 14.71875 0 L 2.640625 0 Z M 2.640625 -17.640625 "/></g></g></g><g fill="#85644c" fill-opacity="1"><g transform="translate(543.831918, 433.626827)"><g/></g></g><g fill="#85644c" fill-opacity="1"><g transform="translate(551.822096, 433.626827)"><g><path d="M 2.640625 -17.640625 L 10.078125 -17.640625 C 11.941406 -17.640625 13.597656 -17.269531 15.046875 -16.53125 C 16.492188 -15.789062 17.613281 -14.753906 18.40625 -13.421875 C 19.207031 -12.085938 19.609375 -10.554688 19.609375 -8.828125 C 19.609375 -7.085938 19.207031 -5.550781 18.40625 -4.21875 C 17.613281 -2.882812 16.492188 -1.847656 15.046875 -1.109375 C 13.597656 -0.367188 11.941406 0 10.078125 0 L 2.640625 0 Z M 9.9375 -2.1875 C 11.363281 -2.1875 12.617188 -2.460938 13.703125 -3.015625 C 14.785156 -3.578125 15.617188 -4.359375 16.203125 -5.359375 C 16.796875 -6.359375 17.09375 -7.515625 17.09375 -8.828125 C 17.09375 -10.128906 16.796875 -11.28125 16.203125 -12.28125 C 15.617188 -13.28125 14.785156 -14.054688 13.703125 -14.609375 C 12.617188 -15.171875 11.363281 -15.453125 9.9375 -15.453125 L 5.171875 -15.453125 L 5.171875 -2.1875 Z M 9.9375 -2.1875 "/></g></g></g><g fill="#85644c" fill-opacity="1"><g transform="translate(573.851559, 433.626827)"><g><path d="M 15.453125 -2.1875 L 15.453125 0 L 2.640625 0 L 2.640625 -17.640625 L 15.09375 -17.640625 L 15.09375 -15.453125 L 5.171875 -15.453125 L 5.171875 -10.03125 L 14.015625 -10.03125 L 14.015625 -7.890625 L 5.171875 -7.890625 L 5.171875 -2.1875 Z M 15.453125 -2.1875 "/></g></g></g><g fill="#85644c" fill-opacity="1"><g transform="translate(591.94902, 433.626827)"><g/></g></g><g fill="#85644c" fill-opacity="1"><g transform="translate(599.939198, 433.626827)"><g><path d="M 13.609375 -2.1875 L 13.609375 0 L 0.9375 0 L 0.9375 -1.71875 L 8.109375 -8.640625 C 8.984375 -9.484375 9.570312 -10.210938 9.875 -10.828125 C 10.175781 -11.441406 10.328125 -12.054688 10.328125 -12.671875 C 10.328125 -13.597656 10.003906 -14.316406 9.359375 -14.828125 C 8.710938 -15.335938 7.785156 -15.59375 6.578125 -15.59375 C 4.628906 -15.59375 3.125 -14.957031 2.0625 -13.6875 L 0.359375 -15.171875 C 1.046875 -16.015625 1.945312 -16.671875 3.0625 -17.140625 C 4.175781 -17.609375 5.425781 -17.84375 6.8125 -17.84375 C 8.65625 -17.84375 10.125 -17.398438 11.21875 -16.515625 C 12.3125 -15.640625 12.859375 -14.441406 12.859375 -12.921875 C 12.859375 -11.984375 12.65625 -11.09375 12.25 -10.25 C 11.84375 -9.414062 11.078125 -8.460938 9.953125 -7.390625 L 4.5625 -2.1875 Z M 13.609375 -2.1875 "/></g></g></g><g fill="#85644c" fill-opacity="1"><g transform="translate(615.616962, 433.626827)"><g><path d="M 8.421875 0.203125 C 7.023438 0.203125 5.785156 -0.148438 4.703125 -0.859375 C 3.617188 -1.578125 2.765625 -2.617188 2.140625 -3.984375 C 1.515625 -5.347656 1.203125 -6.960938 1.203125 -8.828125 C 1.203125 -10.691406 1.515625 -12.300781 2.140625 -13.65625 C 2.765625 -15.019531 3.617188 -16.054688 4.703125 -16.765625 C 5.785156 -17.484375 7.023438 -17.84375 8.421875 -17.84375 C 9.796875 -17.84375 11.023438 -17.484375 12.109375 -16.765625 C 13.191406 -16.054688 14.039062 -15.019531 14.65625 -13.65625 C 15.28125 -12.300781 15.59375 -10.691406 15.59375 -8.828125 C 15.59375 -6.960938 15.28125 -5.347656 14.65625 -3.984375 C 14.039062 -2.617188 13.191406 -1.578125 12.109375 -0.859375 C 11.023438 -0.148438 9.796875 0.203125 8.421875 0.203125 Z M 8.421875 -2.046875 C 9.828125 -2.046875 10.953125 -2.625 11.796875 -3.78125 C 12.648438 -4.9375 13.078125 -6.617188 13.078125 -8.828125 C 13.078125 -11.023438 12.648438 -12.703125 11.796875 -13.859375 C 10.953125 -15.015625 9.828125 -15.59375 8.421875 -15.59375 C 6.992188 -15.59375 5.851562 -15.015625 5 -13.859375 C 4.15625 -12.703125 3.734375 -11.023438 3.734375 -8.828125 C 3.734375 -6.617188 4.15625 -4.9375 5 -3.78125 C 5.851562 -2.625 6.992188 -2.046875 8.421875 -2.046875 Z M 8.421875 -2.046875 "/></g></g></g><g fill="#85644c" fill-opacity="1"><g transform="translate(633.638809, 433.626827)"><g><path d="M 13.609375 -2.1875 L 13.609375 0 L 0.9375 0 L 0.9375 -1.71875 L 8.109375 -8.640625 C 8.984375 -9.484375 9.570312 -10.210938 9.875 -10.828125 C 10.175781 -11.441406 10.328125 -12.054688 10.328125 -12.671875 C 10.328125 -13.597656 10.003906 -14.316406 9.359375 -14.828125 C 8.710938 -15.335938 7.785156 -15.59375 6.578125 -15.59375 C 4.628906 -15.59375 3.125 -14.957031 2.0625 -13.6875 L 0.359375 -15.171875 C 1.046875 -16.015625 1.945312 -16.671875 3.0625 -17.140625 C 4.175781 -17.609375 5.425781 -17.84375 6.8125 -17.84375 C 8.65625 -17.84375 10.125 -17.398438 11.21875 -16.515625 C 12.3125 -15.640625 12.859375 -14.441406 12.859375 -12.921875 C 12.859375 -11.984375 12.65625 -11.09375 12.25 -10.25 C 11.84375 -9.414062 11.078125 -8.460938 9.953125 -7.390625 L 4.5625 -2.1875 Z M 13.609375 -2.1875 "/></g></g></g><g fill="#85644c" fill-opacity="1"><g transform="translate(649.316573, 433.626827)"><g><path d="M 6.25 -10.609375 C 8.769531 -10.609375 10.617188 -10.132812 11.796875 -9.1875 C 12.984375 -8.238281 13.578125 -6.941406 13.578125 -5.296875 C 13.578125 -4.253906 13.328125 -3.316406 12.828125 -2.484375 C 12.335938 -1.648438 11.59375 -0.992188 10.59375 -0.515625 C 9.59375 -0.0351562 8.363281 0.203125 6.90625 0.203125 C 5.664062 0.203125 4.460938 0.015625 3.296875 -0.359375 C 2.140625 -0.742188 1.179688 -1.269531 0.421875 -1.9375 L 1.59375 -3.9375 C 2.195312 -3.363281 2.96875 -2.90625 3.90625 -2.5625 C 4.84375 -2.21875 5.832031 -2.046875 6.875 -2.046875 C 8.207031 -2.046875 9.238281 -2.328125 9.96875 -2.890625 C 10.695312 -3.453125 11.0625 -4.21875 11.0625 -5.1875 C 11.0625 -6.25 10.65625 -7.050781 9.84375 -7.59375 C 9.039062 -8.144531 7.664062 -8.421875 5.71875 -8.421875 L 1.71875 -8.421875 L 2.640625 -17.640625 L 12.609375 -17.640625 L 12.609375 -15.453125 L 4.765625 -15.453125 L 4.28125 -10.609375 Z M 6.25 -10.609375 "/></g></g></g></svg>